REM DIRINDEX 1\2,1\3,1\4,1\5
REM DIRNAME cjc044,folder01,folder02,folder03,folder04
TITLE ""
FILE "1800_177.mp3" MP3
  TRACK 01 AUDIO
    TITLE "2:cjc044_6057"
    INDEX 01 00:00:00
  TRACK 02 AUDIO
    TITLE "0:"
    INDEX 01 00:01:30
  TRACK 03 AUDIO
    TITLE "3:cjc044_6058"
    INDEX 01 00:02:00
  TRACK 04 AUDIO
    TITLE "0:"
    INDEX 01 00:04:13
  TRACK 05 AUDIO
    TITLE "4:cjc044_6059"
    INDEX 01 00:04:64
  TRACK 06 AUDIO
    TITLE "0:"
    INDEX 01 00:06:33
  TRACK 07 AUDIO
    TITLE "2:cjc044_6060"
    INDEX 01 00:08:07
  TRACK 08 AUDIO
    TITLE "0:"
    INDEX 01 00:09:28
  TRACK 09 AUDIO
    TITLE "3:cjc044_6061"
    INDEX 01 00:10:02
  TRACK 10 AUDIO
    TITLE "0:"
    INDEX 01 00:11:21
  TRACK 11 AUDIO
    TITLE "4:cjc044_6062"
    INDEX 01 00:11:70
  TRACK 12 AUDIO
    TITLE "0:"
    INDEX 01 00:13:16
  TRACK 13 AUDIO
    TITLE "2:cjc044_6063"
    INDEX 01 00:14:68
  TRACK 14 AUDIO
    TITLE "0:"
    INDEX 01 00:16:40
  TRACK 15 AUDIO
    TITLE "3:cjc044_6064"
    INDEX 01 00:17:16
  TRACK 16 AUDIO
    TITLE "0:"
    INDEX 01 00:18:48
  TRACK 17 AUDIO
    TITLE "4:cjc044_6065"
    INDEX 01 00:19:20
  TRACK 18 AUDIO
    TITLE "0:"
    INDEX 01 00:20:65
  TRACK 19 AUDIO
    TITLE "2:cjc044_6066"
    INDEX 01 00:22:38
  TRACK 20 AUDIO
    TITLE "0:"
    INDEX 01 00:23:69
  TRACK 21 AUDIO
    TITLE "3:cjc044_6067"
    INDEX 01 00:24:45
  TRACK 22 AUDIO
    TITLE "0:"
    INDEX 01 00:25:62
  TRACK 23 AUDIO
    TITLE "4:cjc044_6068"
    INDEX 01 00:26:32
  TRACK 24 AUDIO
    TITLE "0:"
    INDEX 01 00:27:63
  TRACK 25 AUDIO
    TITLE "2:cjc044_6069"
    INDEX 01 00:29:36
  TRACK 26 AUDIO
    TITLE "0:"
    INDEX 01 00:30:69
  TRACK 27 AUDIO
    TITLE "3:cjc044_6070"
    INDEX 01 00:31:47
  TRACK 28 AUDIO
    TITLE "0:"
    INDEX 01 00:33:44
  TRACK 29 AUDIO
    TITLE "4:cjc044_6071"
    INDEX 01 00:34:16
  TRACK 30 AUDIO
    TITLE "0:"
    INDEX 01 00:35:51
  TRACK 31 AUDIO
    TITLE "2:cjc044_6072"
    INDEX 01 00:37:26
  TRACK 32 AUDIO
    TITLE "0:"
    INDEX 01 00:38:53
  TRACK 33 AUDIO
    TITLE "3:cjc044_6073"
    INDEX 01 00:39:25
  TRACK 34 AUDIO
    TITLE "0:"
    INDEX 01 00:40:66
  TRACK 35 AUDIO
    TITLE "4:cjc044_6074"
    INDEX 01 00:41:38
  TRACK 36 AUDIO
    TITLE "0:"
    INDEX 01 00:42:59
  TRACK 37 AUDIO
    TITLE "2:cjc044_6075"
    INDEX 01 00:44:36
  TRACK 38 AUDIO
    TITLE "0:"
    INDEX 01 00:45:61
  TRACK 39 AUDIO
    TITLE "3:cjc044_6076"
    INDEX 01 00:46:35
  TRACK 40 AUDIO
    TITLE "0:"
    INDEX 01 00:47:40
  TRACK 41 AUDIO
    TITLE "4:cjc044_6077"
    INDEX 01 00:48:10
  TRACK 42 AUDIO
    TITLE "0:"
    INDEX 01 00:49:37
  TRACK 43 AUDIO
    TITLE "2:cjc044_6078"
    INDEX 01 00:51:07
  TRACK 44 AUDIO
    TITLE "0:"
    INDEX 01 00:52:22
  TRACK 45 AUDIO
    TITLE "3:cjc044_6079"
    INDEX 01 00:52:73
  TRACK 46 AUDIO
    TITLE "0:"
    INDEX 01 00:54:58
  TRACK 47 AUDIO
    TITLE "4:cjc044_6080"
    INDEX 01 00:55:28
  TRACK 48 AUDIO
    TITLE "0:"
    INDEX 01 00:56:45
  TRACK 49 AUDIO
    TITLE "2:cjc044_6081"
    INDEX 01 00:58:17
  TRACK 50 AUDIO
    TITLE "0:"
    INDEX 01 00:59:43
  TRACK 51 AUDIO
    TITLE "3:cjc044_6082"
    INDEX 01 01:00:15
  TRACK 52 AUDIO
    TITLE "0:"
    INDEX 01 01:01:38
  TRACK 53 AUDIO
    TITLE "4:cjc044_6083"
    INDEX 01 01:02:06
  TRACK 54 AUDIO
    TITLE "0:"
    INDEX 01 01:03:33
  TRACK 55 AUDIO
    TITLE "2:cjc044_6084"
    INDEX 01 01:05:07
  TRACK 56 AUDIO
    TITLE "0:"
    INDEX 01 01:06:32
  TRACK 57 AUDIO
    TITLE "3:cjc044_6085"
    INDEX 01 01:07:08
  TRACK 58 AUDIO
    TITLE "0:"
    INDEX 01 01:08:11
  TRACK 59 AUDIO
    TITLE "4:cjc044_6086"
    INDEX 01 01:08:56
  TRACK 60 AUDIO
    TITLE "0:"
    INDEX 01 01:10:12
  TRACK 61 AUDIO
    TITLE "2:cjc044_6087"
    INDEX 01 01:11:64
  TRACK 62 AUDIO
    TITLE "0:"
    INDEX 01 01:12:73
  TRACK 63 AUDIO
    TITLE "3:cjc044_6088"
    INDEX 01 01:13:42
  TRACK 64 AUDIO
    TITLE "0:"
    INDEX 01 01:14:43
  TRACK 65 AUDIO
    TITLE "4:cjc044_6089"
    INDEX 01 01:15:15
  TRACK 66 AUDIO
    TITLE "0:"
    INDEX 01 01:16:24
  TRACK 67 AUDIO
    TITLE "2:cjc044_6090"
    INDEX 01 01:17:73
  TRACK 68 AUDIO
    TITLE "0:"
    INDEX 01 01:19:27
  TRACK 69 AUDIO
    TITLE "3:cjc044_6091"
    INDEX 01 01:19:72
  TRACK 70 AUDIO
    TITLE "0:"
    INDEX 01 01:21:08
  TRACK 71 AUDIO
    TITLE "4:cjc044_6092"
    INDEX 01 01:21:57
  TRACK 72 AUDIO
    TITLE "0:"
    INDEX 01 01:23:09
  TRACK 73 AUDIO
    TITLE "2:cjc044_6093"
    INDEX 01 01:24:57
  TRACK 74 AUDIO
    TITLE "0:"
    INDEX 01 01:26:13
  TRACK 75 AUDIO
    TITLE "3:cjc044_6094"
    INDEX 01 01:26:62
  TRACK 76 AUDIO
    TITLE "0:"
    INDEX 01 01:28:25
  TRACK 77 AUDIO
    TITLE "4:cjc044_6095"
    INDEX 01 01:28:72
  TRACK 78 AUDIO
    TITLE "0:"
    INDEX 01 01:30:30
  TRACK 79 AUDIO
    TITLE "2:cjc044_6096"
    INDEX 01 01:32:02
  TRACK 80 AUDIO
    TITLE "0:"
    INDEX 01 01:33:15
  TRACK 81 AUDIO
    TITLE "3:cjc044_6097"
    INDEX 01 01:33:66
  TRACK 82 AUDIO
    TITLE "0:"
    INDEX 01 01:35:00
  TRACK 83 AUDIO
    TITLE "4:cjc044_6098"
    INDEX 01 01:35:47
  TRACK 84 AUDIO
    TITLE "0:"
    INDEX 01 01:36:64
  TRACK 85 AUDIO
    TITLE "2:cjc044_6099"
    INDEX 01 01:38:38
  TRACK 86 AUDIO
    TITLE "0:"
    INDEX 01 01:39:64
  TRACK 87 AUDIO
    TITLE "3:cjc044_6100"
    INDEX 01 01:40:38
  TRACK 88 AUDIO
    TITLE "0:"
    INDEX 01 01:41:61
  TRACK 89 AUDIO
    TITLE "4:cjc044_6101"
    INDEX 01 01:42:37
  TRACK 90 AUDIO
    TITLE "0:"
    INDEX 01 01:43:64
  TRACK 91 AUDIO
    TITLE "2:cjc044_6102"
    INDEX 01 01:45:38
  TRACK 92 AUDIO
    TITLE "0:"
    INDEX 01 01:46:57
  TRACK 93 AUDIO
    TITLE "3:cjc044_6103"
    INDEX 01 01:47:33
  TRACK 94 AUDIO
    TITLE "0:"
    INDEX 01 01:49:18
  TRACK 95 AUDIO
    TITLE "4:cjc044_6104"
    INDEX 01 01:49:65
  TRACK 96 AUDIO
    TITLE "0:"
    INDEX 01 01:51:09
  TRACK 97 AUDIO
    TITLE "2:cjc044_6105"
    INDEX 01 01:52:61
  TRACK 98 AUDIO
    TITLE "0:"
    INDEX 01 01:54:13
  TRACK 99 AUDIO
    TITLE "3:cjc044_6106"
    INDEX 01 01:54:62
  TRACK 100 AUDIO
    TITLE "0:"
    INDEX 01 01:56:04
  TRACK 101 AUDIO
    TITLE "4:cjc044_6107"
    INDEX 01 01:56:49
  TRACK 102 AUDIO
    TITLE "0:"
    INDEX 01 01:57:74
  TRACK 103 AUDIO
    TITLE "2:cjc044_6108"
    INDEX 01 01:59:48
  TRACK 104 AUDIO
    TITLE "0:"
    INDEX 01 02:01:03
  TRACK 105 AUDIO
    TITLE "3:cjc044_6109"
    INDEX 01 02:01:52
  TRACK 106 AUDIO
    TITLE "0:"
    INDEX 01 02:03:06
  TRACK 107 AUDIO
    TITLE "4:cjc044_6110"
    INDEX 01 02:03:53
  TRACK 108 AUDIO
    TITLE "0:"
    INDEX 01 02:05:09
